<svg id="visual" viewBox="0 0 900 600" width="900" height="600" xmlns="http://www.w3.org/2000/svg" xmlns:xlink="http://www.w3.org/1999/xlink" version="1.1"><rect x="0" y="0" width="900" height="600" fill="#13a3eb"></rect><path d="M0 196L11.5 217.3C23 238.7 46 281.3 69 301.3C92 321.3 115 318.7 138.2 282.7C161.3 246.7 184.7 177.3 207.8 143.8C231 110.3 254 112.7 277 136.3C300 160 323 205 346 263.8C369 322.7 392 395.3 415.2 435.2C438.3 475 461.7 482 484.8 439.2C508 396.3 531 303.7 554 302.7C577 301.7 600 392.3 623 413.3C646 434.3 669 385.7 692.2 360.7C715.3 335.7 738.7 334.3 761.8 349.5C785 364.7 808 396.3 831 381.7C854 367 877 306 888.5 275.5L900 245L900 601L888.5 601C877 601 854 601 831 601C808 601 785 601 761.8 601C738.7 601 715.3 601 692.2 601C669 601 646 601 623 601C600 601 577 601 554 601C531 601 508 601 484.8 601C461.7 601 438.3 601 415.2 601C392 601 369 601 346 601C323 601 300 601 277 601C254 601 231 601 207.8 601C184.7 601 161.3 601 138.2 601C115 601 92 601 69 601C46 601 23 601 11.5 601L0 601Z" fill="#020a16" stroke-linecap="round" stroke-linejoin="miter"></path></svg>